<svg xmlns="http://www.w3.org/2000/svg" xmlns:xlink="http://www.w3.org/1999/xlink" xmlns:inkscape="http://www.inkscape.org/namespaces/inkscape" version="1.1" width="461.238" height="216.433" viewBox="0 0 461.238 216.433">
<path transform="matrix(1,0,0,-1,33.03,66.563999)" stroke-width=".49814" stroke-linecap="butt" stroke-dasharray="2.98883,2.98883" stroke-miterlimit="10" stroke-linejoin="miter" fill="none" stroke="#008000" d="M-27.79953-37.16571H151.49628V37.165735H-27.79953Z"/>
<text fill="#008000" xml:space="preserve" transform="matrix(1 0 -0 1 0 216.43299)" font-size="9.9626" font-family="Computer Modern" font-style="italic"><tspan y="-192.079" x="83.224 89.978649 92.52907 97.61996 103.21894">Plant</tspan></text>
<path transform="matrix(1,0,0,-1,33.03,66.563999)" stroke-width=".79701" stroke-linecap="butt" stroke-miterlimit="10" stroke-linejoin="miter" fill="none" stroke="#000000" d="M-18.89699-14.2796H18.897002V14.279619H-18.89699Z"/>
<text xml:space="preserve" transform="matrix(1 0 -0 1 0 216.43299)" font-size="8.9664" font-family="Computer Modern" font-weight="bold"><tspan y="-153.156" x="23.431 30.675852">PC</tspan></text>
<text xml:space="preserve" transform="matrix(1 0 -0 1 0 216.43299)" font-size="8.9664" font-family="Computer Modern"><tspan y="-142.197" x="23.431 30.595154 36.61161">OFF</tspan></text>
<path transform="matrix(1,0,0,-1,33.03,66.563999)" stroke-width=".79701" stroke-linecap="butt" stroke-miterlimit="10" stroke-linejoin="miter" fill="none" stroke="#000000" d="M76.38763-19.75912H142.59372V19.75914H76.38763Z"/>
<text xml:space="preserve" transform="matrix(1 0 -0 1 0 216.43299)" font-size="8.9664" font-family="Computer Modern" font-weight="bold"><tspan y="-158.636" x="118.714 124.60492 130.79175 135.6605 140.52927 146.4202 151.7283 157.0364 162.1921">Speedgoat</tspan></text>
<text xml:space="preserve" transform="matrix(1 0 -0 1 0 216.43299)" font-size="8.9664" font-family="Computer Modern"><tspan y="-147.677" x="118.714 125.501567 129.59922 134.20795 136.77234 139.84781 143.43437 145.99877 153.68297">Real-time</tspan><tspan y="-136.718" x="118.714 123.83381 126.3982 133.82239 138.9422 141.50659 144.07099 149.1908">Simulink</tspan></text>
<path transform="matrix(1,0,0,-1,33.03,66.563999)" stroke-width=".79701" stroke-linecap="butt" stroke-miterlimit="10" stroke-linejoin="miter" fill="none" stroke="#000000" d="M373.00016-14.2796H426.02949V14.279619H373.00016Z"/>
<text xml:space="preserve" transform="matrix(1 0 -0 1 0 216.43299)" font-size="8.9664" font-family="Computer Modern" font-weight="bold"><tspan y="-153.156" x="415.323 422.56785 428.94297">PLC</tspan></text>
<text xml:space="preserve" transform="matrix(1 0 -0 1 0 216.43299)" font-size="8.9664" font-family="Computer Modern"><tspan y="-142.197" x="415.323 421.85054 425.94819 429.7858 434.6456 439.7654 444.37416 447.06407">Beckhoff</tspan></text>
<path transform="matrix(1,0,0,-1,33.03,66.563999)" stroke-width=".79701" stroke-linecap="butt" stroke-miterlimit="10" stroke-linejoin="miter" fill="none" stroke="#000000" d="M249.29291 8.50404H266.30097V25.5121H249.29291Z"/>
<text xml:space="preserve" transform="matrix(1 0 -0 1 0 216.433)" font-size="9.9626" font-family="Computer Modern"><tspan y="-164.386" x="286.949">+</tspan></text>
<path transform="matrix(1,0,0,-1,33.03,66.563999)" stroke-width=".79701" stroke-linecap="butt" stroke-miterlimit="10" stroke-linejoin="miter" fill="none" stroke="#000000" d="M249.29291-25.5121H266.30097V-8.50404H249.29291Z"/>
<text xml:space="preserve" transform="matrix(1 0 -0 1 0 216.43299)" font-size="9.9626" font-family="Computer Modern"><tspan y="-130.37" x="286.949">+</tspan></text>
<text fill="#b30000" xml:space="preserve" transform="matrix(1 0 -0 1 0 216.433)" font-size="8.9664" font-family="Computer Modern" font-style="italic"><tspan y="-203.274" x="286.134">a</tspan></text>
<text fill="#b30000" xml:space="preserve" transform="matrix(1 0 -0 1 0 216.433)" font-size="5.9776" font-family="Computer Modern" font-style="italic"><tspan y="-202.278" x="291.016">y</tspan></text>
<text fill="#b30000" xml:space="preserve" transform="matrix(1 0 -0 1 0 216.43299)" font-size="8.9664" font-family="Computer Modern" font-style="italic"><tspan y="-94.18" x="285.93">a</tspan></text>
<text fill="#b30000" xml:space="preserve" transform="matrix(1 0 -0 1 0 216.43299)" font-size="5.9776" font-family="Computer Modern" font-style="italic"><tspan y="-93.184" x="290.81199">u</tspan></text>
<path transform="matrix(1,0,0,-1,33.03,66.563999)" stroke-width=".79701" stroke-linecap="butt" stroke-miterlimit="10" stroke-linejoin="miter" fill="none" stroke="#b30000" d="M257.79695 47.52878V32.08754"/>
<path transform="matrix(0,1,1,0,290.82695,34.476457)" d="M4.53381 0C3.97704 .13808 1.52963 .92049 0 1.77196V-1.77196C1.52963-.92049 3.97704-.13808 4.53381 0Z" fill="#b30000"/>
<path transform="matrix(0,1,1,0,290.82695,34.476457)" stroke-width=".79701" stroke-linecap="butt" stroke-miterlimit="10" stroke-linejoin="miter" fill="none" stroke="#b30000" d="M4.53381 0C3.97704 .13808 1.52963 .92049 0 1.77196V-1.77196C1.52963-.92049 3.97704-.13808 4.53381 0Z"/>
<path transform="matrix(1,0,0,-1,33.03,66.563999)" stroke-width=".79701" stroke-linecap="butt" stroke-miterlimit="10" stroke-linejoin="miter" fill="none" stroke="#b30000" d="M257.79695-48.10994V-32.08754"/>
<path transform="matrix(0,-1,-1,-0,290.82695,98.651538)" d="M4.53381 0C3.97704 .13808 1.52963 .92049 0 1.77196V-1.77196C1.52963-.92049 3.97704-.13808 4.53381 0Z" fill="#b30000"/>
<path transform="matrix(0,-1,-1,-0,290.82695,98.651538)" stroke-width=".79701" stroke-linecap="butt" stroke-miterlimit="10" stroke-linejoin="miter" fill="none" stroke="#b30000" d="M4.53381 0C3.97704 .13808 1.52963 .92049 0 1.77196V-1.77196C1.52963-.92049 3.97704-.13808 4.53381 0Z"/>
<path transform="matrix(1,0,0,-1,33.03,66.563999)" stroke-width=".79701" stroke-linecap="butt" stroke-miterlimit="10" stroke-linejoin="miter" fill="none" stroke="#000000" d="M19.2955 5.66934H69.81221"/>
<path transform="matrix(1,0,0,-1,102.84221,60.894655)" d="M4.53381 0C3.97704 .13808 1.52963 .92049 0 1.77196V-1.77196C1.52963-.92049 3.97704-.13808 4.53381 0Z"/>
<path transform="matrix(1,0,0,-1,102.84221,60.894655)" stroke-width=".79701" stroke-linecap="butt" stroke-miterlimit="10" stroke-linejoin="miter" fill="none" stroke="#000000" d="M4.53381 0C3.97704 .13808 1.52963 .92049 0 1.77196V-1.77196C1.52963-.92049 3.97704-.13808 4.53381 0Z"/>
<text xml:space="preserve" transform="matrix(1 0 -0 1 0 216.433)" font-size="8.9664" font-family="Computer Modern" font-style="italic"><tspan y="-160.253" x="71.029">w</tspan></text>
<text xml:space="preserve" transform="matrix(1 0 -0 1 0 216.433)" font-size="5.9776" font-family="Computer Modern"><tspan y="-159.257" x="77.634 81.286319">1:</tspan></text>
<text xml:space="preserve" transform="matrix(1 0 -0 1 0 216.433)" font-size="5.9776" font-family="Computer Modern" font-style="italic"><tspan y="-159.257" x="83.390438">N</tspan></text>
<path transform="matrix(1,0,0,-1,33.03,66.563999)" stroke-width=".79701" stroke-linecap="butt" stroke-miterlimit="10" stroke-linejoin="miter" fill="none" stroke="#000000" d="M142.99225 5.66934 242.75283 16.35057"/>
<path transform="matrix(.99428,-.10645,-.10645,-.99428,275.78285,50.213426)" d="M4.53381 0C3.97704 .13808 1.52963 .92049 0 1.77196V-1.77196C1.52963-.92049 3.97704-.13808 4.53381 0Z"/>
<path transform="matrix(.99428,-.10645,-.10645,-.99428,275.78285,50.213426)" stroke-width=".79701" stroke-linecap="butt" stroke-miterlimit="10" stroke-linejoin="miter" fill="none" stroke="#000000" d="M4.53381 0C3.97704 .13808 1.52963 .92049 0 1.77196V-1.77196C1.52963-.92049 3.97704-.13808 4.53381 0Z"/>
<text xml:space="preserve" transform="matrix(1 0 -0 1 0 216.433)" font-size="8.9664" font-family="Computer Modern"><tspan y="-167.168" x="205.846">(</tspan></text>
<text xml:space="preserve" transform="matrix(1 0 -0 1 0 216.433)" font-size="8.9664" font-family="Computer Modern" font-style="italic"><tspan y="-167.168" x="209.43256 215.57454 219.67218 224.8996 228.99724">P,x,w</tspan></text>
<text xml:space="preserve" transform="matrix(1 0 -0 1 0 216.433)" font-size="8.9664" font-family="Computer Modern"><tspan y="-167.168" x="235.84757">)</tspan></text>
<text xml:space="preserve" transform="matrix(1 0 -0 1 0 216.433)" font-size="5.9776" font-family="Computer Modern"><tspan y="-166.172" x="239.414 243.06632">1:</tspan></text>
<text xml:space="preserve" transform="matrix(1 0 -0 1 0 216.433)" font-size="5.9776" font-family="Computer Modern" font-style="italic"><tspan y="-166.172" x="245.17043">N</tspan></text>
<path transform="matrix(1,0,0,-1,33.03,66.563999)" stroke-width=".79701" stroke-linecap="butt" stroke-miterlimit="10" stroke-linejoin="miter" fill="none" stroke="#000000" d="M266.6995 17.00807 366.46009 6.32684"/>
<path transform="matrix(.99428,.10645,.10645,-.99428,399.49009,60.237157)" d="M4.53381 0C3.97704 .13808 1.52963 .92049 0 1.77196V-1.77196C1.52963-.92049 3.97704-.13808 4.53381 0Z"/>
<path transform="matrix(.99428,.10645,.10645,-.99428,399.49009,60.237157)" stroke-width=".79701" stroke-linecap="butt" stroke-miterlimit="10" stroke-linejoin="miter" fill="none" stroke="#000000" d="M4.53381 0C3.97704 .13808 1.52963 .92049 0 1.77196V-1.77196C1.52963-.92049 3.97704-.13808 4.53381 0Z"/>
<text xml:space="preserve" transform="matrix(1 0 -0 1 0 216.433)" font-size="8.9664" font-family="Computer Modern"><tspan y="-167.168" x="319.231">(</tspan></text>
<text xml:space="preserve" transform="matrix(1 0 -0 1 0 216.433)" font-size="8.9664" font-family="Computer Modern" font-style="italic"><tspan y="-167.168" x="322.81755 328.95954 333.0572 338.2846 342.38227">P,x,w</tspan></text>
<text xml:space="preserve" transform="matrix(1 0 -0 1 0 216.433)" font-size="8.9664" font-family="Computer Modern"><tspan y="-167.168" x="349.2326">)</tspan></text>
<text xml:space="preserve" transform="matrix(1 0 -0 1 0 216.433)" font-size="5.9776" font-family="Computer Modern"><tspan y="-166.172" x="352.79899 356.4513">1:</tspan></text>
<text xml:space="preserve" transform="matrix(1 0 -0 1 0 216.433)" font-size="5.9776" font-family="Computer Modern" font-style="italic"><tspan y="-166.172" x="358.55543">N</tspan></text>
<text xml:space="preserve" transform="matrix(1 0 -0 1 0 216.433)" font-size="8.9664" font-family="Computer Modern"><tspan y="-167.168" x="367.52699">+</tspan></text>
<text xml:space="preserve" transform="matrix(1 0 -0 1 0 216.433)" font-size="8.9664" font-family="Computer Modern" font-style="italic"><tspan y="-167.168" x="376.73548">a</tspan></text>
<text xml:space="preserve" transform="matrix(1 0 -0 1 0 216.433)" font-size="5.9776" font-family="Computer Modern" font-style="italic"><tspan y="-166.172" x="381.62397">y</tspan></text>
<path transform="matrix(1,0,0,-1,33.03,66.563999)" stroke-width=".79701" stroke-linecap="butt" stroke-miterlimit="10" stroke-linejoin="miter" fill="none" stroke="#000000" d="M372.60166-5.66934 272.84104-16.35057"/>
<path transform="matrix(-.99428,.10645,.10645,.99428,305.87104,82.914569)" d="M4.53381 0C3.97704 .13808 1.52963 .92049 0 1.77196V-1.77196C1.52963-.92049 3.97704-.13808 4.53381 0Z"/>
<path transform="matrix(-.99428,.10645,.10645,.99428,305.87104,82.914569)" stroke-width=".79701" stroke-linecap="butt" stroke-miterlimit="10" stroke-linejoin="miter" fill="none" stroke="#000000" d="M4.53381 0C3.97704 .13808 1.52963 .92049 0 1.77196V-1.77196C1.52963-.92049 3.97704-.13808 4.53381 0Z"/>
<text xml:space="preserve" transform="matrix(1 0 -0 1 0 216.433)" font-size="8.9664" font-family="Computer Modern"><tspan y="-128.086" x="325.96">(</tspan></text>
<text xml:space="preserve" transform="matrix(1 0 -0 1 0 216.433)" font-size="8.9664" font-family="Computer Modern" font-style="italic"><tspan y="-128.086" x="329.54655">P</tspan></text>
<text xml:space="preserve" transform="matrix(1 0 -0 1 0 216.433)" font-size="5.9776" font-family="Computer Modern"><tspan y="-127.024" x="335.427 338.3082 341.57197">ref</tspan></text>
<text xml:space="preserve" transform="matrix(1 0 -0 1 0 216.433)" font-size="8.9664" font-family="Computer Modern" font-style="italic"><tspan y="-128.086" x="344.85 348.94767">,&#x03b3;</tspan></text>
<text xml:space="preserve" transform="matrix(1 0 -0 1 0 216.433)" font-size="5.9776" font-family="Computer Modern"><tspan y="-127.024" x="353.706 356.5872 359.85096">ref</tspan></text>
<text xml:space="preserve" transform="matrix(1 0 -0 1 0 216.433)" font-size="8.9664" font-family="Computer Modern"><tspan y="-128.086" x="363.129">)</tspan></text>
<text xml:space="preserve" transform="matrix(1 0 -0 1 0 216.433)" font-size="5.9776" font-family="Computer Modern"><tspan y="-127.09" x="366.712 370.36433">1:</tspan></text>
<text xml:space="preserve" transform="matrix(1 0 -0 1 0 216.433)" font-size="5.9776" font-family="Computer Modern" font-style="italic"><tspan y="-127.09" x="372.46846">N</tspan></text>
<path transform="matrix(1,0,0,-1,33.03,66.563999)" stroke-width=".79701" stroke-linecap="butt" stroke-miterlimit="10" stroke-linejoin="miter" fill="none" stroke="#000000" d="M248.8944-17.00807 149.13382-6.32684"/>
<path transform="matrix(-.99428,-.10645,-.10645,.99428,182.16382,72.89084)" d="M4.53381 0C3.97704 .13808 1.52963 .92049 0 1.77196V-1.77196C1.52963-.92049 3.97704-.13808 4.53381 0Z"/>
<path transform="matrix(-.99428,-.10645,-.10645,.99428,182.16382,72.89084)" stroke-width=".79701" stroke-linecap="butt" stroke-miterlimit="10" stroke-linejoin="miter" fill="none" stroke="#000000" d="M4.53381 0C3.97704 .13808 1.52963 .92049 0 1.77196V-1.77196C1.52963-.92049 3.97704-.13808 4.53381 0Z"/>
<text xml:space="preserve" transform="matrix(1 0 -0 1 0 216.433)" font-size="8.9664" font-family="Computer Modern"><tspan y="-128.086" x="193.777">(</tspan></text>
<text xml:space="preserve" transform="matrix(1 0 -0 1 0 216.433)" font-size="8.9664" font-family="Computer Modern" font-style="italic"><tspan y="-128.086" x="197.36356">P</tspan></text>
<text xml:space="preserve" transform="matrix(1 0 -0 1 0 216.433)" font-size="5.9776" font-family="Computer Modern"><tspan y="-127.024" x="203.24399 206.1252 209.38896">ref</tspan></text>
<text xml:space="preserve" transform="matrix(1 0 -0 1 0 216.433)" font-size="8.9664" font-family="Computer Modern" font-style="italic"><tspan y="-128.086" x="212.66699">&#x03b3;</tspan></text>
<text xml:space="preserve" transform="matrix(1 0 -0 1 0 216.433)" font-size="5.9776" font-family="Computer Modern"><tspan y="-127.024" x="217.42699 220.3082 223.57196">ref</tspan></text>
<text xml:space="preserve" transform="matrix(1 0 -0 1 0 216.433)" font-size="8.9664" font-family="Computer Modern"><tspan y="-128.086" x="226.84999">)</tspan></text>
<text xml:space="preserve" transform="matrix(1 0 -0 1 0 216.433)" font-size="5.9776" font-family="Computer Modern"><tspan y="-127.09" x="230.43399 234.0863">1:</tspan></text>
<text xml:space="preserve" transform="matrix(1 0 -0 1 0 216.433)" font-size="5.9776" font-family="Computer Modern" font-style="italic"><tspan y="-127.09" x="236.19042">N</tspan></text>
<text xml:space="preserve" transform="matrix(1 0 -0 1 0 216.433)" font-size="8.9664" font-family="Computer Modern"><tspan y="-128.086" x="245.16199">+</tspan></text>
<text xml:space="preserve" transform="matrix(1 0 -0 1 0 216.433)" font-size="8.9664" font-family="Computer Modern" font-style="italic"><tspan y="-128.086" x="254.37049">a</tspan></text>
<text xml:space="preserve" transform="matrix(1 0 -0 1 0 216.433)" font-size="5.9776" font-family="Computer Modern" font-style="italic"><tspan y="-127.09" x="259.25898">u</tspan></text>
<path transform="matrix(1,0,0,-1,33.03,66.563999)" stroke-width=".79701" stroke-linecap="butt" stroke-miterlimit="10" stroke-linejoin="miter" fill="none" stroke="#000000" d="M75.98914-5.66934H25.47243"/>
<path transform="matrix(-1,-0,0,1,58.502428,72.23334)" d="M4.53381 0C3.97704 .13808 1.52963 .92049 0 1.77196V-1.77196C1.52963-.92049 3.97704-.13808 4.53381 0Z"/>
<path transform="matrix(-1,-0,0,1,58.502428,72.23334)" stroke-width=".79701" stroke-linecap="butt" stroke-miterlimit="10" stroke-linejoin="miter" fill="none" stroke="#000000" d="M4.53381 0C3.97704 .13808 1.52963 .92049 0 1.77196V-1.77196C1.52963-.92049 3.97704-.13808 4.53381 0Z"/>
<text xml:space="preserve" transform="matrix(1 0 -0 1 0 216.43299)" font-size="8.9664" font-family="Computer Modern"><tspan y="-133.756" x="56.183">(</tspan></text>
<text xml:space="preserve" transform="matrix(1 0 -0 1 0 216.43299)" font-size="8.9664" font-family="Computer Modern" font-style="italic"><tspan y="-133.756" x="59.769559">c</tspan></text>
<text xml:space="preserve" transform="matrix(1 0 -0 1 0 216.43299)" font-size="5.9776" font-family="Computer Modern" font-style="italic"><tspan y="-132.759" x="63.755998">t</tspan></text>
<text xml:space="preserve" transform="matrix(1 0 -0 1 0 216.43299)" font-size="8.9664" font-family="Computer Modern" font-style="italic"><tspan y="-133.756" x="67.104999 71.202648">,c</tspan></text>
<text xml:space="preserve" transform="matrix(1 0 -0 1 0 216.43299)" font-size="5.9776" font-family="Computer Modern" font-style="italic"><tspan y="-132.759" x="75.189998">p</tspan></text>
<text xml:space="preserve" transform="matrix(1 0 -0 1 0 216.43299)" font-size="8.9664" font-family="Computer Modern" font-style="italic"><tspan y="-133.756" x="79.52899 83.62664">,&#x03b3;</tspan></text>
<text xml:space="preserve" transform="matrix(1 0 -0 1 0 216.43299)" font-size="8.9664" font-family="Computer Modern"><tspan y="-133.756" x="88.89889">)</tspan></text>
<text xml:space="preserve" transform="matrix(1 0 -0 1 0 216.43299)" font-size="5.9776" font-family="Computer Modern"><tspan y="-132.759" x="92.479999 96.13231">1:</tspan></text>
<text xml:space="preserve" transform="matrix(1 0 -0 1 0 216.43299)" font-size="5.9776" font-family="Computer Modern" font-style="italic"><tspan y="-132.759" x="98.23643">N</tspan></text>
<text xml:space="preserve" transform="matrix(1 0 -0 1 0 216.433)" font-size="9.9626" font-family="Computer Modern" font-weight="bold"><tspan y="-46.625" x="10.959 19.23792 24.966416 34.510587 40.876688 47.242788 51.696069 57.26516 61.71844 64.89651 70.625 76.991107 82.560199 89.55394 97.07571 102.6448 107.36707">ComputationalPart</tspan></text>
<path transform="matrix(1,0,0,-1,136.295,173.394)" stroke-width=".398" stroke-linecap="butt" stroke-miterlimit="10" stroke-linejoin="miter" fill="none" stroke="#000000" d="M0 0V11.955"/>
<text xml:space="preserve" transform="matrix(1 0 -0 1 0 216.433)" font-size="9.9626" font-family="Computer Modern" font-weight="bold"><tspan y="-46.625" x="155.556 161.9221 167.6506 171.14748 175.28195 183.24207 188.81116 193.53343">Software</tspan></text>
<path transform="matrix(1,0,0,-1,218.044,173.394)" stroke-width=".398" stroke-linecap="butt" stroke-miterlimit="10" stroke-linejoin="miter" fill="none" stroke="#000000" d="M0 0V11.955"/>
<text xml:space="preserve" transform="matrix(1 0 -0 1 0 216.433)" font-size="9.9626" font-family="Computer Modern" font-weight="bold"><tspan y="-46.625" x="224.022 232.98834 238.55744 243.27971 249.64582 257.60594 263.17503 267.89729">Hardware</tspan></text>
<path transform="matrix(1,0,0,-1,279.113,173.394)" stroke-width=".398" stroke-linecap="butt" stroke-miterlimit="10" stroke-linejoin="miter" fill="none" stroke="#000000" d="M0 0V11.955"/>
<text xml:space="preserve" transform="matrix(1 0 -0 1 0 216.433)" font-size="9.9626" font-family="Computer Modern" font-weight="bold"><tspan y="-46.625" x="303.735 308.07868 314.44477 320.81086 327.17695 331.63023">Inputs</tspan></text>
<path transform="matrix(1,0,0,-1,360.772,173.394)" stroke-width=".398" stroke-linecap="butt" stroke-miterlimit="10" stroke-linejoin="miter" fill="none" stroke="#000000" d="M0 0V11.955"/>
<text xml:space="preserve" transform="matrix(1 0 -0 1 0 216.433)" font-size="9.9626" font-family="Computer Modern" font-weight="bold"><tspan y="-46.625" x="389.126 397.7337 404.0998 408.55308 414.91917 421.28526 425.73854">Outputs</tspan></text>
<path transform="matrix(1,0,0,-1,4.981,173.594)" stroke-width=".398" stroke-linecap="butt" stroke-miterlimit="10" stroke-linejoin="miter" fill="none" stroke="#000000" d="M0 0H453.631"/>
<text xml:space="preserve" transform="matrix(1 0 -0 1 0 216.433)" font-size="9.9626" font-family="Computer Modern"><tspan y="-34.272" x="10.959 20.373656 25.354956 30.336255 38.077196 40.846799 43.6164 48.039796 50.8094 59.676115 63.60138 66.37098 74.39087 79.93008 82.69968 87.68098 91.55643 94.32603 99.30733">Wakefieldsimulation</tspan></text>
<path transform="matrix(1,0,0,-1,136.295,185.748)" stroke-width=".398" stroke-linecap="butt" stroke-miterlimit="10" stroke-linejoin="miter" fill="none" stroke="#000000" d="M0 0V11.955"/>
<text xml:space="preserve" transform="matrix(1 0 -0 1 0 216.433)" font-size="9.9626" font-family="Computer Modern"><tspan y="-34.272" x="166.792 174.54291 181.0485">OFF</tspan></text>
<path transform="matrix(1,0,0,-1,218.044,185.748)" stroke-width=".398" stroke-linecap="butt" stroke-miterlimit="10" stroke-linejoin="miter" fill="none" stroke="#000000" d="M0 0V11.955"/>
<text xml:space="preserve" transform="matrix(1 0 -0 1 0 216.433)" font-size="9.9626" font-family="Computer Modern"><tspan y="-34.272" x="241.591 248.37554">PC</tspan></text>
<path transform="matrix(1,0,0,-1,279.113,185.748)" stroke-width=".398" stroke-linecap="butt" stroke-miterlimit="10" stroke-linejoin="miter" fill="none" stroke="#000000" d="M0 0V11.955"/>
<text xml:space="preserve" transform="matrix(1 0 -0 1 0 216.433)" font-size="9.9626" font-family="Computer Modern"><tspan y="-34.272" x="293.525">(</tspan></text>
<text xml:space="preserve" transform="matrix(1 0 -0 1 0 216.433)" font-size="9.9626" font-family="Computer Modern" font-style="italic"><tspan y="-34.272" x="297.40046">c</tspan></text>
<text xml:space="preserve" transform="matrix(1 0 -0 1 0 216.433)" font-size="6.9738" font-family="Computer Modern" font-style="italic"><tspan y="-32.777" x="301.711">t</tspan></text>
<text xml:space="preserve" transform="matrix(1 0 -0 1 0 216.433)" font-size="9.9626" font-family="Computer Modern" font-style="italic"><tspan y="-34.272" x="305.219 309.65235">,c</tspan></text>
<text xml:space="preserve" transform="matrix(1 0 -0 1 0 216.433)" font-size="6.9738" font-family="Computer Modern" font-style="italic"><tspan y="-32.777" x="313.958">p</tspan></text>
<text xml:space="preserve" transform="matrix(1 0 -0 1 0 216.433)" font-size="9.9626" font-family="Computer Modern" font-style="italic"><tspan y="-34.272" x="318.56303 322.99638">,&#x03b3;</tspan></text>
<text xml:space="preserve" transform="matrix(1 0 -0 1 0 216.433)" font-size="9.9626" font-family="Computer Modern"><tspan y="-34.272" x="328.70494">)</tspan></text>
<text xml:space="preserve" transform="matrix(1 0 -0 1 0 216.433)" font-size="6.9738" font-family="Computer Modern"><tspan y="-32.777" x="332.57704 336.5521">1:</tspan></text>
<text xml:space="preserve" transform="matrix(1 0 -0 1 0 216.433)" font-size="6.9738" font-family="Computer Modern" font-style="italic"><tspan y="-32.777" x="338.80464">N</tspan></text>
<path transform="matrix(1,0,0,-1,360.772,185.748)" stroke-width=".398" stroke-linecap="butt" stroke-miterlimit="10" stroke-linejoin="miter" fill="none" stroke="#000000" d="M0 0V11.955"/>
<text xml:space="preserve" transform="matrix(1 0 -0 1 0 216.433)" font-size="9.9626" font-family="Computer Modern" font-style="italic"><tspan y="-34.272" x="399.234">w</tspan></text>
<text xml:space="preserve" transform="matrix(1 0 -0 1 0 216.433)" font-size="6.9738" font-family="Computer Modern"><tspan y="-32.777" x="406.367 410.34208">1:</tspan></text>
<text xml:space="preserve" transform="matrix(1 0 -0 1 0 216.433)" font-size="6.9738" font-family="Computer Modern" font-style="italic"><tspan y="-32.777" x="412.5946">N</tspan></text>
<path transform="matrix(1,0,0,-1,4.981,185.94699)" stroke-width=".398" stroke-linecap="butt" stroke-miterlimit="10" stroke-linejoin="miter" fill="none" stroke="#000000" d="M0 0H453.631"/>
<text xml:space="preserve" transform="matrix(1 0 -0 1 0 216.433)" font-size="9.9626" font-family="Computer Modern"><tspan y="-21.918" x="10.959 17.3251 22.864306 26.769646 32.308855 35.078458 40.617666 48.358606 56.65745 61.917707 67.45691 71.8803 77.967449 89.03589 93.45928 98.44058 103.7108 107.58625 111.49159 116.47289 119.24249 122.01209 126.435489">Turbinemodel&#x0026;controller</tspan></text>
<path transform="matrix(1,0,0,-1,136.295,198.102)" stroke-width=".398" stroke-linecap="butt" stroke-miterlimit="10" stroke-linejoin="miter" fill="none" stroke="#000000" d="M0 0V11.955"/>
<text xml:space="preserve" transform="matrix(1 0 -0 1 0 216.433)" font-size="9.9626" font-family="Computer Modern"><tspan y="-21.918" x="158.074 163.6132 166.38282 174.40271 179.94191 182.71152 185.48113 191.02033">Simulink</tspan></text>
<path transform="matrix(1,0,0,-1,218.044,198.102)" stroke-width=".398" stroke-linecap="butt" stroke-miterlimit="10" stroke-linejoin="miter" fill="none" stroke="#000000" d="M0 0V11.955"/>
<text xml:space="preserve" transform="matrix(1 0 -0 1 0 216.433)" font-size="9.9626" font-family="Computer Modern"><tspan y="-21.918" x="226.301 231.8402 237.65834 242.08174 246.50514 252.04434 257.02565 262.00694 266.98823">Speedgoat</tspan></text>
<path transform="matrix(1,0,0,-1,279.113,198.102)" stroke-width=".398" stroke-linecap="butt" stroke-miterlimit="10" stroke-linejoin="miter" fill="none" stroke="#000000" d="M0 0V11.955"/>
<text xml:space="preserve" transform="matrix(1 0 -0 1 0 216.433)" font-size="9.9626" font-family="Computer Modern"><tspan y="-21.918" x="285.091">(</tspan></text>
<text xml:space="preserve" transform="matrix(1 0 -0 1 0 216.433)" font-size="9.9626" font-family="Computer Modern" font-style="italic"><tspan y="-21.918" x="288.96647 296.36866 300.802">w,P</tspan></text>
<text xml:space="preserve" transform="matrix(1 0 -0 1 0 216.433)" font-size="6.9738" font-family="Computer Modern"><tspan y="-20.422999" x="307.19 310.30033 313.84303">ref</tspan></text>
<text xml:space="preserve" transform="matrix(1 0 -0 1 0 216.433)" font-size="9.9626" font-family="Computer Modern" font-style="italic"><tspan y="-21.918" x="317.37 321.80335">,&#x03b3;</tspan></text>
<text xml:space="preserve" transform="matrix(1 0 -0 1 0 216.433)" font-size="6.9738" font-family="Computer Modern"><tspan y="-20.422999" x="326.956 330.0663 333.609">ref</tspan></text>
<text xml:space="preserve" transform="matrix(1 0 -0 1 0 216.433)" font-size="9.9626" font-family="Computer Modern"><tspan y="-21.918" x="337.137">)</tspan></text>
<text xml:space="preserve" transform="matrix(1 0 -0 1 0 216.433)" font-size="6.9738" font-family="Computer Modern"><tspan y="-20.422999" x="341.011 344.98606">1:</tspan></text>
<text xml:space="preserve" transform="matrix(1 0 -0 1 0 216.433)" font-size="6.9738" font-family="Computer Modern" font-style="italic"><tspan y="-20.422999" x="347.2386">N</tspan></text>
<path transform="matrix(1,0,0,-1,360.772,198.102)" stroke-width=".398" stroke-linecap="butt" stroke-miterlimit="10" stroke-linejoin="miter" fill="none" stroke="#000000" d="M0 0V11.955"/>
<text xml:space="preserve" transform="matrix(1 0 -0 1 0 216.433)" font-size="9.9626" font-family="Computer Modern"><tspan y="-21.918" x="366.749">(</tspan></text>
<text xml:space="preserve" transform="matrix(1 0 -0 1 0 216.433)" font-size="9.9626" font-family="Computer Modern" font-style="italic"><tspan y="-21.918" x="370.62446 377.2994 381.72279 387.4214 391.85475 399.25694 403.69029">P,x,w,c</tspan></text>
<text xml:space="preserve" transform="matrix(1 0 -0 1 0 216.433)" font-size="6.9738" font-family="Computer Modern" font-style="italic"><tspan y="-20.422999" x="407.986">t</tspan></text>
<text xml:space="preserve" transform="matrix(1 0 -0 1 0 216.433)" font-size="9.9626" font-family="Computer Modern" font-style="italic"><tspan y="-21.918" x="411.494 415.92735">,c</tspan></text>
<text xml:space="preserve" transform="matrix(1 0 -0 1 0 216.433)" font-size="6.9738" font-family="Computer Modern" font-style="italic"><tspan y="-20.422999" x="420.233">p</tspan></text>
<text xml:space="preserve" transform="matrix(1 0 -0 1 0 216.433)" font-size="9.9626" font-family="Computer Modern" font-style="italic"><tspan y="-21.918" x="424.838 429.27137">,&#x03b3;</tspan></text>
<text xml:space="preserve" transform="matrix(1 0 -0 1 0 216.433)" font-size="9.9626" font-family="Computer Modern"><tspan y="-21.918" x="434.97993">)</tspan></text>
<text xml:space="preserve" transform="matrix(1 0 -0 1 0 216.433)" font-size="6.9738" font-family="Computer Modern"><tspan y="-20.422999" x="438.851 442.82609">1:</tspan></text>
<text xml:space="preserve" transform="matrix(1 0 -0 1 0 216.433)" font-size="6.9738" font-family="Computer Modern" font-style="italic"><tspan y="-20.422999" x="445.0786">N</tspan></text>
<path transform="matrix(1,0,0,-1,4.981,198.301)" stroke-width=".398" stroke-linecap="butt" stroke-miterlimit="10" stroke-linejoin="miter" fill="none" stroke="#000000" d="M0 0H453.631"/>
<text xml:space="preserve" transform="matrix(1 0 -0 1 0 216.433)" font-size="9.9626" font-family="Computer Modern"><tspan y="-9.564" x="10.959 18.151997 22.575392 27.835644 31.711096 35.616437 40.597738 43.36734 46.136945 50.560338 54.98373 63.850446 68.27384 73.25514 78.515399 82.39085 86.29619 91.27749 94.04709 96.81669 101.24008">Centralizedcontroller</tspan></text>
<path transform="matrix(1,0,0,-1,136.295,210.455)" stroke-width=".398" stroke-linecap="butt" stroke-miterlimit="10" stroke-linejoin="miter" fill="none" stroke="#000000" d="M0 0V11.955"/>
<text xml:space="preserve" transform="matrix(1 0 -0 1 0 216.433)" font-size="9.9626" font-family="Computer Modern"><tspan y="-9.564" x="142.272 147.8112 151.68666 155.592 161.1312 165.5546 169.43006 174.96926 178.87459 183.29799 192.15474 198.52085 202.94425 208.2045">StructuredText</tspan></text>
<path transform="matrix(1,0,0,-1,218.044,210.455)" stroke-width=".398" stroke-linecap="butt" stroke-miterlimit="10" stroke-linejoin="miter" fill="none" stroke="#000000" d="M0 0V11.955"/>
<text xml:space="preserve" transform="matrix(1 0 -0 1 0 216.433)" font-size="9.9626" font-family="Computer Modern"><tspan y="-9.564" x="238.478 245.26253 251.48915">PLC</tspan></text>
<path transform="matrix(1,0,0,-1,279.113,210.455)" stroke-width=".398" stroke-linecap="butt" stroke-miterlimit="10" stroke-linejoin="miter" fill="none" stroke="#000000" d="M0 0V11.955"/>
<text xml:space="preserve" transform="matrix(1 0 -0 1 0 216.433)" font-size="9.9626" font-family="Computer Modern"><tspan y="-9.564" x="294.865">(</tspan></text>
<text xml:space="preserve" transform="matrix(1 0 -0 1 0 216.433)" font-size="9.9626" font-family="Computer Modern" font-style="italic"><tspan y="-9.564" x="298.74046 305.4154 309.83879 315.53739 319.97074">P,x,w</tspan></text>
<text xml:space="preserve" transform="matrix(1 0 -0 1 0 216.433)" font-size="9.9626" font-family="Computer Modern"><tspan y="-9.564" x="327.37294">)</tspan></text>
<text xml:space="preserve" transform="matrix(1 0 -0 1 0 216.433)" font-size="6.9738" font-family="Computer Modern"><tspan y="-8.07" x="331.237 335.21208">1:</tspan></text>
<text xml:space="preserve" transform="matrix(1 0 -0 1 0 216.433)" font-size="6.9738" font-family="Computer Modern" font-style="italic"><tspan y="-8.07" x="337.4646">N</tspan></text>
<path transform="matrix(1,0,0,-1,360.772,210.455)" stroke-width=".398" stroke-linecap="butt" stroke-miterlimit="10" stroke-linejoin="miter" fill="none" stroke="#000000" d="M0 0V11.955"/>
<text xml:space="preserve" transform="matrix(1 0 -0 1 0 216.433)" font-size="9.9626" font-family="Computer Modern"><tspan y="-9.564" x="380.891">(</tspan></text>
<text xml:space="preserve" transform="matrix(1 0 -0 1 0 216.433)" font-size="9.9626" font-family="Computer Modern" font-style="italic"><tspan y="-9.564" x="384.76646">P</tspan></text>
<text xml:space="preserve" transform="matrix(1 0 -0 1 0 216.433)" font-size="6.9738" font-family="Computer Modern"><tspan y="-8.07" x="391.162 394.2723 397.815">ref</tspan></text>
<text xml:space="preserve" transform="matrix(1 0 -0 1 0 216.433)" font-size="9.9626" font-family="Computer Modern" font-style="italic"><tspan y="-9.563999" x="401.34199 405.77534">,y</tspan></text>
<text xml:space="preserve" transform="matrix(1 0 -0 1 0 216.433)" font-size="6.9738" font-family="Computer Modern"><tspan y="-8.07" x="410.65498 413.7653 417.30799">ref</tspan></text>
<text xml:space="preserve" transform="matrix(1 0 -0 1 0 216.433)" font-size="9.9626" font-family="Computer Modern"><tspan y="-9.563999" x="420.83497">)</tspan></text>
<text xml:space="preserve" transform="matrix(1 0 -0 1 0 216.433)" font-size="6.9738" font-family="Computer Modern"><tspan y="-8.07" x="424.70997 428.68504">1:</tspan></text>
<text xml:space="preserve" transform="matrix(1 0 -0 1 0 216.433)" font-size="6.9738" font-family="Computer Modern" font-style="italic"><tspan y="-8.07" x="430.93757">N</tspan></text>
</svg>
